<svg version="1.1" id="vermontSign" xmlns="http://www.w3.org/2000/svg" xmlns:xlink="http://www.w3.org/1999/xlink" x="0px" y="0px"
	 viewBox="0 0 600 324" style="enable-background:new 0 0 600 324;" xml:space="preserve">
<style type="text/css">
	.st0{fill:#DCF4F7;}
	.st1{fill:#CDD8E1;}
	.st2{fill:#CADFEA;}
	.st3{fill:#81868E;}
	.st4{fill:#CFD5D9;}
	.st5{fill:#036A45;}
	.st6{fill:#0C714D;}
	.st7{fill:#026A44;}
	.st8{fill:#E2F5F5;}
	.st9{fill:#787D84;}
	.st10{fill:#D1EFF0;}
	.st11{fill:#5E6164;}
	.st12{fill:#A7AEB6;}
	.st13{fill:#42494E;}
	.st14{fill:#686B6D;}
	.st15{fill:#404E59;}
	.st16{fill:#02754C;}
	.st17{fill:#FBFDFD;}
	.st18{fill:#FBFCFD;}
	.st19{fill:#FCFDFD;}
	.st20{fill:#F6FDFD;}
	.st21{fill:#0D7D54;}
	.st22{fill:#FAFDFD;}
	.st23{fill:#02774D;}
	.st24{fill:#04714A;}
	.st25{fill:#BEE2E8;}
	.st26{fill:#226D55;}
	.st27{fill:#277158;}
	.st28{fill:#767B7F;}
	.st29{fill:#046E47;}
	.st30{fill:#ABC4DF;}
	.st31{fill:#107451;}
</style>
<g>
	<path class="st0" d="M184,325c-1.3,0-2.7,0-4,0c0.3-10.3-1-20.8,0.1-30.8c1.4-13.4-1.7-26.6-0.1-39.7c1.4-11.9-1.3-23.9,0.2-35.8
		c0.3-2.7,1.2-6-2-8.1c-2.1-0.3-4.1-1.1-6.1-1.5c-1.5-0.4-3-0.8-4.5-1.2c-8.3-1.9-16.5-4-24.9-5.6c-11.7-2.4-23.1-5.8-34.8-8
		c-9.3-2.7-19-3.9-28.5-6c-1.8-0.4-3.5-1-5.1-1.8c-1.5-1.1-3.2-1.2-4.9-1.5c-0.5-0.1-1-0.2-1.5-0.4c-5.4-1.3-10.9-2.1-16.2-3.7
		c-2.1-0.6-4.7-0.9-5-3.9c0.3-0.8,0.9-1.4,1.7-1.7c3.8-0.7,7.2,0.7,10.8,1.6c36.9,8.7,73.8,17.6,110.9,26
		c35.2,8.5,70.5,16.7,105.8,24.9c8.4,1.9,16.8,4,25.2,6.1c15.7,3.8,31.5,7.3,47.3,11.1c2.2,0.5,4.7,0.6,6,3c0.1,1.5-1,1.9-2.1,2.3
		c-6.4,0.3-12.5-2-18.6-3.4c-44.6-10.3-89.2-20.8-133.9-31.1c-4.2-1-8.2-2.9-12.7-2.4c-2.2,1.8-1.5,4.3-1.5,6.6c0,32.5,0,65,0,97.4
		C185.4,320,186,322.8,184,325z"/>
	<path class="st1" d="M177.7,209.2c2.7-0.4,4.3,0.6,4.2,3.4c-0.1,4.3-0.1,8.6-0.4,12.9c-0.5,6.9-0.1,13.9,0.7,20.8
		c0.4,3.3-0.6,6.4-0.7,9.5c-0.4,8.7,0.9,17.1,1.2,25.7c0.1,3.2,0.6,6.8-1.3,10c-0.9,1.5-0.5,3.2-0.2,4.9c1.6,8.4,0.3,16.9,0.7,25.4
		c0.1,1.6-1.2,2.3-2,3.3c-1.3,0-2.7,0-4,0c-0.3-0.6-0.5-1.2-0.4-1.8c0.3-1.6,0.5-3.3,0.5-5c0-32.5,0.7-65.1,0.3-97.6
		C176.4,216.7,174.6,212.7,177.7,209.2z"/>
	<path class="st2" d="M436,325c-1.7,0-3.3,0-5,0c0-12.2,0.7-24.3,0-36.5c-0.4-6.3,0.1-12.9,0.9-19.3c0.2-0.6,0.6-1,1-1.4
		c1.4-0.6,2.3,0,3.1,1.2c1.2,2.1,1.7,4.3,1.8,6.7c0.1,14.8,0.1,29.6,0,44.4c0,1.2-0.2,2.3-0.6,3.4C436.8,324,436.4,324.5,436,325z"
		/>
	<path class="st3" d="M417,325c-0.1-0.3-0.1-0.5-0.2-0.8c0.2-0.2,0.3-0.5,0.5-0.7c1.4-1.1,3.2-0.9,4.8-1.4c2-1,1.4-2.9,1.4-4.4
		c-0.1-15.3,0.4-30.6-0.3-46c-0.1-1.9,0.1-3.7,1.6-5.1c2-0.9,3.7-1,4.8,1.3c-0.4,16-0.1,32.1-0.2,48.1c0,2.3,0.2,4.6-0.4,6.9
		c-0.4,0.9-1.2,1.5-2,2C423.7,325,420.3,325,417,325z"/>
	<path class="st4" d="M427,325c0.3-0.3,0.7-0.7,1-1c1.4-1.7,1-3.8,1-5.7c0-14.7-0.1-29.5,0.1-44.2c0-2.2-1.4-6.4,3.8-5.2
		c0.1,10.6-1.3,21.1,0,31.7c0.8,6.5-1.5,13.1,0,19.6c0.4,2-0.5,3.5-2,4.8C429.7,325,428.3,325,427,325z"/>
	<path class="st1" d="M185,324c0,0.3,0,0.7,0,1c-0.3,0-0.7,0-1,0c0-36.8,0-73.6,0-110.3c0-1.7-1.6-5.5,3-3.8
		c-0.6,23.1,0.2,46.2-0.5,69.2c0.2,13.1,0.5,26.2,0.2,39.4C186.7,321.1,186.3,322.7,185,324z"/>
	<path class="st5" d="M354,248.1c-15.5-3.7-30.9-7.4-46.4-11.1c-2.2-0.5-4.4-1.2-6.7-1.9c-2.1-6.2,2.3-13.2,8.7-13.5
		c1.3-0.1,2.7,0.1,3.9-0.3c2.9-0.6,2.7-3,2.8-5.1c0.1-5.1-0.1-10.3,0.1-15.4c0.4-8.1,3.6-12.2,9.4-12.4c7.2-0.3,12.4,4.2,13.4,11.9
		c0.8,5.9,0.3,11.9,0.3,17.9c0.1,9.8,1.6,11.3,11.6,10.9c1.8-1.1,1.3-2.9,1.3-4.5c0-3.3,0.5-6.7-0.1-9.9c-1.1-6.3,2.7-10.2,6-14.4
		c0.4-0.5,1.5-1.2,1.5-1c1.9,3.5,7.7,1,8.8,5.7c-4.8,17.2,4.9,27.7,16.5,33.2c9.2,4.4,18.6,7.4,28.8,4.2c7.7-2.4,10.9-7.4,10.2-15.5
		c-0.2-2-0.9-3.9,0.5-5.8c3,0.4,3,0.4,4.2,4.9c0.5,0.4,0.8-0.1,1.2-0.2c4.5-1.6,6.2-4.7,5.7-9.5c-0.2-1.2-0.1-4.1,2.9-2.5
		c1.6,3.7,0.9,7.6,0.9,11.3c0.1,7.2-0.1,14.3,0.1,21.5c0.1,4.5,5.6,8.4,9.8,7c1.9-0.6,1.7-2.3,1.7-3.7c0.2-4.8,0-9.6,0.8-14.4
		c1.3-7.8,3.4-10.3,9.4-10.8c7-0.5,13.3,3.6,15.1,9.7c1.2,4.2,1.2,8.6,1.1,12.9c0,1.8,0,3.7,0,5.5c0,8.4,0.1,8.3,8.1,10.2
		c3.3,0.8,3.5-0.5,3.6-3.1c0.1-6-0.7-12,0.5-17.9c2.4-2.8,3.6-5.9,4.2-9.6c0.8-4.8,2.9-5.9,6.9-4.4c0.3,0.4,0.5,0.9,0.6,1.4
		c-0.2,2.3,0.1,4.6-0.4,6.8c-0.2,1-0.4,2.4-2.1,2c-0.5-0.1-0.6-0.7-1-1c0.2,0.3,0.3,0.9,0.7,1c2.2,0.6,3.7-1.9,6-1.2
		c3.8,0.5,4.7,3.3,4.8,6.5c0.2,4.8,0,9.7,0.1,14.5c0.1,7.8,2.8,11.6,10.1,14.3c3.1,1.2,6.4,1.9,9.7,2.1c1.2,0.1,2.5,0.1,2.7-1.5
		c0.2-1.3-0.4-2.3-1.6-2.8c-1.1-0.5-2.2-0.8-3.3-1.2c-3.4-1.3-5.5-3.8-5.7-7.5c-0.3-4.8-0.3-9.7,0-14.5c0.2-3.2,1.8-5.3,5.1-4.3
		c4.1,1.2,5.9-0.4,6.4-4.2c0.4-0.5,0.7-1.3,1.5-1.2c2.9,0.4,4.4,3.6,3.9,8c-0.4,3.1-1.7,5-5.2,4.4c-1.8-0.3-3.5-1.1-5.4,0.1
		c1.1,2,2.5,0.5,3.7,0.3c2.8-0.4,5.1-0.5,6.8,2.5c1.4,2.5,4.2,2.3,5.3-0.2c1.1-2.6,1.7-4.8,5.4-4.4c4.3,0.4,8.9-0.2,10.7,5.1
		c0.2,0.5,0.4,0.9,1.5,2.1c-0.1-6.8,5.6-10,7.6-15.2c0.3-0.8,0.8-1.6,1.7-1.5c0.9,0.1,1.2,1,1.5,1.8c0.2,0.8,0.3,1.6,0.3,2.5
		c0,17.6,0.1,35.2,0,52.8c0,0.7-0.2,1.3-0.4,2c-0.2,0.5-0.5,1-1,1.3c-3.5,2-6.9,0.2-10.2-0.6c-32.3-7.8-64.7-15.2-97-22.8
		c-13.7-3.2-27.4-6.5-41.1-9.8c-21.9-5.3-43.8-10.6-65.7-15.5C355.8,249.5,354.8,248.9,354,248.1z"/>
	<path class="st6" d="M314.2,222.9c-0.3,0-0.7,0.1-1,0.1c-7.8,0.2-11.6,3.9-12.3,12.1c-16.3-3.7-32.7-7.4-49-11.2
		c-27.2-6.3-54.3-12.7-81.5-19.1c-0.3-0.1-0.5-0.4-0.8-0.6c1.1-5.9-1.4-12,0.7-17.9c2.2-2.1,4.1-0.4,5.8,0.6c5.3,3.1,11,4.6,17,5.3
		c4.7,0.5,9.4,0.2,13.3-2.8c3.2-2.4,3-4-0.6-5.5c-3.9-1.6-7.3-2.5-11.7,0.1c-7.6,4.5-21.3-5.1-20.9-14c0.1-2.2,1.3-2.9,3.2-2.8
		c2.2,0.1,4.3,0.7,6.3,1.3c8.2,2.3,16.5,4.1,24.6,6.3c3.1,0.9,4.2,0.2,4-3.1c-0.3-3.7-1.3-7.2-2.7-10.5c-0.7-1.5-1.7-2.9-1.6-4.7
		c2.4-3.7,5.6-3.2,8.8-1.3c1.6,1,1.8,1.2,2.8-0.8c1.5-3.1,4.2-3.2,7.7-0.9c0.1,0.5,0.2,1,0.1,1.5c-1.1,13.2,0.4,26.4-0.1,39.6
		c-0.1,1.5,0.1,3,1.2,4.2c0.6,0.3-0.2,0,0.4,0.3c9.5,5,11.4,3.9,11.5-6.5c0-5-0.5-10,0.6-14.9c1.7-8.1,6-10.8,13.7-7.5
		c5.1,2.1,5.8-2.3,8.2-4.2c0.5-0.4,1.2-0.6,1.7-1c4.2-2.9,4.3-2.9,5.9,2.3c0.4,12,0.1,23.9,0.2,35.9c0.1,6.4,1.3,7.6,7.7,8.5
		c2.6,0.4,3.8-0.4,3.8-3c0.1-4.3,0-8.6,0-13c0-2.8,0-5.6,0.7-8.4c1.3-5.7,4-8.5,8.7-8.8c5.1-0.4,10.8,2.8,12.7,7.1
		c1.1,2.5,1.3,5.1,1.3,7.8c0.1,6.5,0.1,13,0,19.4c-0.1,3.7,1.1,6,4.9,6.8C311.5,220.1,313.7,220.4,314.2,222.9z"/>
	<path class="st7" d="M171.1,185.8c-1.2,5.3,2,10.6,0,16c-0.4,0.9-0.5,1.9-1.4,2.5c-21.3-4.9-42.7-9.8-64-14.7
		c-19.2-4.4-38.5-8.9-57.7-13.4c-2.8-0.1-3-2-3-4.2c1.2-5.8,0.5-11.6,0.6-17.4c0.1-10,0-20,0-30c0-1.8-0.2-3.7,0.8-5.4
		c1-1.6,2.2-3.2,4.4-2.3c2,0.8,2.7,2.9,1.8,4.6c-2,3.5-0.8,4.7,2.7,5.8c2.6,0.8,5.2,2.5,6.8,4.9c2.3,3.5,5.6,5,9.6,5.5
		c4.1,0.5,8,2,11.9,3.2c4.4,1.3,9.2,2.5,14,2.3c3,0.7,3.5,3.4,4.2,5.7c1.9,5.8,4.5,11.4,6.6,17.2c1.4,3.9,3.7,6.2,7.8,6.5
		c1.2,0.1,2.3,0.5,3.4,0.7c6.1,1.4,6.8,1,9.4-4.9c5.5-12.7,12.4-24.6,18-37.2c0.5-1.2,1.2-2.4,2.7-2.7c4.4,1.7,2,4.6,1.1,7
		c-1.6,4.6-1.8,4.5,3.2,5.3c1.2,0.2,2.3,0.5,3.3,1.1c2.2,1.4,4,0.9,5.7-0.9c1.9-2.1,4.5-3,7.2-3c3.5,0.1,3.7,1.6,1.3,3.9
		c-13,8.3-14.9,25.3-4.2,37.7C168.9,181.5,171.3,182.8,171.1,185.8z"/>
	<path class="st8" d="M42.9,155c0-15,0-30,0-44.9c-0.4-0.5-0.7-1-1-1.5c-1.1-5.6-0.6-11.3-0.6-17c0.2-7.3-0.1-14.6,0.1-22
		c0.2-7.5,3.6-10.3,10.9-8.7c6.8,1.5,13.4,3.8,20.1,5.9c23.4,7,47,13.6,70.3,21c19.1,5.5,38.2,11.5,57.4,16.8
		c1.1,0.3,2.2,0.6,3.3,1.1c17.7,5.3,35.4,10.7,53.1,15.9c21.1,6.2,42.4,12.1,63.4,18.7c2.8,0.9,5.8,1.5,8,3.7c6,1.8,11.8,4.1,18,5.1
		c6.5-0.2,12.2,2.9,18.2,4.5c3.6,0.8,7.2,1.8,10.7,3c0.5,0.1,1,0.3,1.4,0.5c1.8,0.9,4,1.2,4.8,3.4c-0.3,1.2-1.4,1.5-2.4,1.8
		c-10.4-1.9-20.5-5.2-30.6-8.3c-4.4-1.3-9.3-1-13.4-3.6c-10.3-4.1-21.1-6.7-31.7-9.9c-1.5-0.1-2.9-1-4.5-1c-2.9-0.1-5.7-0.8-8.3-2.2
		c-1.5-1.1-3.3-1.6-5-2.1c-25.9-7.2-51.5-15.6-77.5-22.7c-16.3-4.7-32.4-9.9-48.8-14.3c-17.9-5.4-35.6-11.2-53.8-15.7
		C89.2,77,72.9,73.1,56.9,68c-1.3-0.4-2.5-0.8-3.8-1.1c-4-1-5.6,0.3-5.5,4.4c0.2,13.1,1,26.3-0.1,39.4c-1.7,20.4-0.3,40.8-1.3,61.2
		c-0.7,1.9,0.4,3.2,1.7,4.3c-0.5,0.4-0.9,0.7-1.4,1.1c-3.3,0.5-4.5-2-4.8-4.4C41.1,166.9,40.3,160.8,42.9,155z"/>
	<path class="st9" d="M176,324.3c-1-0.1-2.1-0.2-3.1-0.3c-2.8-5.1-1.3-10.7-1.6-16.1c-0.3-4.6,0-9.2-0.4-13.8
		c-0.4-5.4,0.5-10.9,1.2-16.3c1.4-2,1.5-4.3,1.5-6.7c0-16.3,0-32.5,0-48.8c0-3.2-0.9-6.2-1.6-9.3c-0.4-1.7-1-3.5,0.1-5.2
		c2.1-0.4,3.7,1.1,5.7,1.3c0.1,8.1,0.3,16.2,0.3,24.3c0,28.1,0.1,56.2,0,84.2C178,320,179.3,322.9,176,324.3z"/>
	<path class="st10" d="M354,248.1c23.5,5.4,46.9,10.7,70.4,16.2c47.6,11.1,95.1,22.4,142.6,33.5c1.3,0.3,2.6,0.1,3.9,0.2
		c0.6,0.7,0.6,1.5,0.1,2.3c-2.3,1.7-4.8,0.9-7.2,0.3c-29.9-7.1-59.9-13.9-89.8-20.9c-10.8-2.5-21.6-5.5-32.5-7.5
		c-2.5-0.4-4.9-1.1-6.6-3.2c-0.5-0.9-1.3-1-2.2-0.9c-1.3,0.4-2.5,0.8-3.7-0.2c-1.2-1-2.6-1.2-4.1-0.8c-1.4,1-2.8,0.4-4.2,0
		c-1.4-0.4-2.7-1.1-3.8-2.1c-16.6-4-33.2-8-49.9-12c-5.1-1.2-10.3-2.6-15.4-3.9C352.4,248.8,353.2,248.4,354,248.1z"/>
	<path class="st11" d="M173,278c-0.9,15.3,0.3,30.7-0.1,46c-1,0-2,0.1-3,0.1c-1.9-3-1.5-6.5-1.2-9.7c0.8-9.3,0.8-18.6-0.2-27.9
		c-0.5-4.5-0.4-9,0.3-13.4c0.8-5.3,0.9-10.6,0-15.9c-1.1-6.5-0.6-13-0.1-19.4c0.7-10.2-0.5-20.2-1-30.3c0.1-0.3,0.3-0.5,0.4-0.8
		c1.3,0.4,2.7,0.7,4,1.1c0.3,1.4,0.6,2.8,0.9,4.2c0.8,3.6,1,7.2,1,10.8c0.2,17.3-0.3,34.6-0.1,51.8C174,275.9,173.7,277,173,278z"/>
	<path class="st12" d="M429.1,267.9c1.2,0.1,2.5,0.1,3.7,0.2c0.1,0.2,0.1,0.5,0.1,0.7c-4.2,0.5-2.8,3.9-2.8,6.1
		c-0.2,14.7-0.1,29.5-0.2,44.2c0,1.7,1.1,4.2-1.9,4.8c0-16.8,0-33.5,0-50.3C428,271.7,427.9,269.7,429.1,267.9z"/>
	<path class="st13" d="M416.9,265.1c1.5-0.1,2.8,0.2,4.1,0.9c1.5,3.7,2.5,7.5,2.5,11.5c0,13.4,0,26.9,0,40.3c0,2.1,0.3,4.4-1.6,6
		c-1.6,0-3.2,0-4.9,0C417,304.3,417,284.7,416.9,265.1z"/>
	<path class="st14" d="M421.9,323.9c0-15.8,0-31.6,0.1-47.4c0-3.6-3.1-6.8-1-10.5c1.3,0.4,2.6,0.8,4,1.2c0,17.3,0.1,34.7,0,52
		C425,321.3,425.8,324.3,421.9,323.9z"/>
	<path class="st15" d="M165.9,282c0-23.3,0-46.7,0.2-70c0-1.7-1.3-4.2,1.9-4.7c3.3,8.2,2.8,16.8,2.6,25.4c-0.2,8.2-0.9,16.4,0,24.6
		c0.2,1.6,0.6,3.3,0.4,4.9c-1.7,15.1,0.3,30.2,0,45.3c-0.1,5.6-0.6,11.1-1,16.7c-1.3,0-2.7-0.1-4-0.1C165.9,310,165.9,296,165.9,282
		z"/>
	<path class="st16" d="M335.1,148.8c10.6,3,21.2,6.1,31.7,9.1c4,1.1,8,2.2,12,3.2c7.8,0.1,14.9,3,22,5.4
		c16.8,5.7,33.9,10.4,50.8,15.4c31,9.3,62,18.3,93,27.4c6.7,2,13.2,4.4,20,5.8c2.1,0.5,4.1,1.3,5.9,2.7c2.1,1.7,2.9,4,2.9,6.6
		c0.1,22.9,0.1,45.8,0,68.6c0,1.2-0.1,2.3-0.7,3.4c-0.4,0.6-0.9,0.8-1.6,0.6c0-19.3,0-38.5,0-57.8c-0.9,3.3-2,5.8-5.4,7.5
		c-2.4,1.3-2.1,5-2.6,7.7c-0.3,1.7-0.6,3.8-2.5,3.7c-2,0-1.2-2.3-1.6-3.6c-1.1-3.6-2.6-6.7-7.4-4.9c-0.7,0.3-1.7,0.2-2.4-0.1
		c-2.6-1.3-3.7-1.5-3.4,2.3c0.4,4-3.8,3.7-6.1,4.6c-2.7,1-2.6-1.6-2.8-3.4c-0.3-2.5-1.6-3.1-3.8-2.1c-1.5,0.7-3.1,1.3-4.6,1.8
		c-1.8,0.6-3-0.2-3.3-1.9c-0.3-1.7-0.4-3.5,2.1-3.6c1.6-0.1,3.4-0.1,4.9,0.3c1.7,0.5,4.2,2.8,4.5-0.6c0.2-2.8,2.9-7.3-2.7-8.6
		c-8,1.6-12-1.3-12.5-8.8c-0.1-2,0.8-4.6-2.4-5.3c-3.5-0.8-8.4,1.1-9.4,3.5c-2.2,5.1-4.4,5.5-8.6,1.5c-2.1-2.4-3.8-1.8-4.8,0.8
		c-0.7,1.7-1.3,3.6-1.1,5.3c0.3,3.3-1,5-3.9,5.8c-1.5-0.9-1.6-2.5-1.8-3.9c-1-5.5-4.3-9.2-9.1-11.8c-7.7-4.1-15.7-6.3-24.5-3.8
		c-1.5,0.4-3.5,0.7-4.1-0.8c-1.9-4.8-6.3-4.9-10.1-6.1c-1.3-0.4-2.4-1.1-3.6-1.6c-1.9,2.9-0.5,6.1-1,9.1c-0.1,1,0.4,3.1-0.8,2.9
		c-3.4-0.5-5.2,0.7-6,3.9c-0.1,0.3-1.2,0.7-1.7,0.5c-1.3-0.4-1.3-1.7-1.5-2.8c-0.4-2,1.4-4.9-2.3-5.5c-3.5-1.1-4.5-4.6-6.8-7
		c-9.6-10-21.3-15-35.2-14.8c-4.3,0.1-8.1,1.5-11.5,4.2c-0.9,0.7-1.7,2.3-3.3,1.1c-0.3-1.1-1-3-2-1.7c-4.7,6.2-3.5-0.9-4.9-2.1
		c-0.3-0.3-0.5-0.7-1.1-1.6c-1.2,3.2-2,6.2-5.4,7.4c-1.3,0.5-0.6,2.7-0.7,4.2c-0.5,6.7,1,13.5-0.8,20.1c-2.1-1.6-1.7-3.9-1.7-6
		c-0.1-7-0.1-14,0-21c0.1-7.7-3.4-13.1-9.8-16.8c-5.4-3.1-11.5-5.8-17.6-3.7c-7.4,2.5-11.8-0.3-15.6-5.9c-3.7-10.3-8.6-20-15.3-28.8
		c-3.9-5.2-9-8.7-14.8-11.4c-0.9-0.4-1.9-0.7-2.8-1.1c-1.2-0.6-2.6-1.3-1.8-3c0.7-1.5,2.2-1.5,3.4-1.1c2.5,0.9,5,1.5,7.4,2.6
		c2,0.9,4.1,1,6.3,1.2c2.5,1.4,5.3,1.6,8.1,2.1c1.4,1.1,0.4,2.6,0.5,4.2c0.2-1.5,1.1-1.9,2.1-2.2c8.7,1.4,16.8,4.6,25.1,7
		C329.5,147.9,332,150,335.1,148.8z"/>
	<path class="st17" d="M309,176.7c0.1,0.1,0.2,0.2,0.3,0.4c4.1,4.1,7.5,6.8,14.9,5c15.5-3.8,28.7,8.5,28.7,24.4
		c0,8.2,0.1,16.3,0.1,24.5c-5.1,1.2-9.4-1.6-14.1-2.5c-1.9-0.4-1.2-2.5-1.2-3.9c-0.1-8,0.1-15.9-0.2-23.9c-0.3-7.3-4.2-11-11.2-11.2
		c-4.2-0.1-7,1.7-7.7,6c-1.3,7.9-0.6,15.9-0.6,23.8c0,3.3-1,4.1-4,3.5c-0.3-0.2-0.5-0.5-0.8-0.6c-10.5-2.8-10.5-2.8-10.5-13.5
		c0-6,0.1-12-0.1-18c-0.2-6.5-3.4-9.8-9.7-10.6c-5.6-0.7-8.6,1.3-9.4,6.9c-1.2,7.8-0.4,15.6-0.5,23.4c0,2.9,0,4.6-4,3.6
		c-11.2-2.8-11.2-2.6-11.2-14.2c0-11.3,0-22.6,0-33.9c5.5-1.7,10.7-0.3,14.5,3.6c2,2.1,3.4,2.3,5.9,1.8
		C296.1,169.8,303.2,170.9,309,176.7z"/>
	<path class="st18" d="M368,204.6c6.4-7.6,14.9-8,23.6-6.3c14.3,2.7,25.9,9.7,33.2,22.7c0.1,0.8,0.2,1.6,0.4,2.5
		c2.6,11.4-1.7,18.3-13,21c-15.4,3.6-38.6-7.5-44.3-21.1C365.3,217.1,364.9,210.9,368,204.6z"/>
	<path class="st19" d="M438,213c4.6-1,8.5,1.8,12.8,2.4c0.5,0.1,1.4,0.9,1.4,1.3c-0.4,6.7,3.4,3,6.1,2.6
		c11.6-1.5,21.6,1.8,29.7,10.5c2.9,3.1,2.9,7.3,3.2,11.2c-0.1,7-0.2,14-0.1,20.9c0.1,2.9-0.6,3.7-3.6,3.1
		c-11.7-2.2-11.7-2.1-11.7-13.8c0-5.3,0.4-10.6-0.5-15.9c-1.3-7.1-12-12-18.3-8.4c-2.3,1.3-3.1,3.4-3.1,5.8
		c-0.2,6.6-0.4,13.3-0.4,19.9c0,2.9-0.7,3.8-3.8,3.1c-11.6-2.5-11.6-2.5-11.6-14.4C438.1,232,438,222.5,438,213z"/>
	<path class="st19" d="M501.1,229.1c1.1,0.3,2.3,0.6,3.4,1c2.7,1.1,4,0.4,3.5-2.7c-0.5-3.1,1.1-4.2,3.9-4.3c0.3,0,0.7-0.1,1-0.1
		c3.3,0.2,7.3-2.2,9.6-0.3c2.1,1.8,0.6,6,0.6,9.1c0,2.4,0.7,3.7,3.2,4.2c2.6,0.5,5.1,1.4,7.7,2.1c0,0.8-0.1,1.7,0,2.5
		c0.6,4.4-1.1,5.1-5,3.8c-5.6-1.9-5.7-1.7-5.7,4.4c0,3.8,0.2,7.7,0,11.5c-0.3,5.1,2.3,7.2,7,7.7c2.9,0.3,5.4,4.3,4.6,7
		c-0.4,1.4-1.5,1.1-2.4,1.1c-7.2-0.4-14.2-1.8-20.1-6.4c-3.2-2.5-4.1-5.9-4.2-9.7c0-6-0.2-12,0-18c0.1-3.1-1.1-4.3-4.1-4
		C499.9,236.6,499.6,235.7,501.1,229.1L501.1,229.1z"/>
	<path class="st20" d="M571.1,297c0.2,0,0.5-0.1,0.7-0.1c1.3-1.6,0.6-3.5,0.6-5.3c0.1-21.8,0-43.6,0.1-65.4c0-1.6-1.5-4.3,2-4.6
		c0.6,0.3,1,0.8,1.2,1.4c0.4,24.8,0.2,49.7,0.1,74.5c-0.1,0.7-0.4,1.2-0.8,1.7c-1.3,0.4-2.5,1.4-4.1,0.8c0-0.7,0-1.4,0-2.1
		C571,297.6,571,297.3,571.1,297z"/>
	<path class="st16" d="M501.1,229c-0.4,3.4-2.1,7.2,2.8,9c-2.1-0.5-4.6,2.4-6.4-0.3c-1.1-1.8-1.1-4,0.5-6c1.8,1.6,0.1,3.8,1.5,5.2
		C500.9,234.4,498.7,231.2,501.1,229z"/>
	<path class="st21" d="M309,176.7c-8.6-4.2-17.2-7-26.9-1.3c1.1-5.7-2-7-5.9-7.6c-2.7-0.5-5.4-1.2-8.2-1.8c-0.3-0.7-0.4-1.9-0.9-2
		c-1.6-0.4-0.5,1-0.8,1.4c-0.9,1.3-2.1,1.2-3.3,0.6c-1.8,0-3-1.3-4.5-2c-4.8-2.2-9.7-3.7-14.8-0.7c-2.5,1.5-4.4,1.2-5.2-2
		c-0.7-2.7-3.2-3-5.4-3.8c-2.4-0.8-5.5-0.5-6.9-3.3c-4.8-2.1-6.1-1.4-5.7,3c0.1,0.7,0.1,1.3-0.6,1.6c-1,0.3-2.3,0.3-2.7-0.5
		c-2.3-4.4-5.7-3.1-9.2-2.1c-1.3,0.4-2.3-0.2-3.1-1.1c-3.8-4.1-8.3-7.3-13.4-9.8c-0.9-0.5-2.2-1.1-1.4-2.6c5.7-0.3,9.2-4.8,13.7-7.4
		c11.4-6.4,20.9-9.7,33.2-10.8c-8-3.2-16.6-6.1-25.2-8.7c-2-0.6-4-1.9-3.8-4.6c18.7,5.5,37.5,10.8,56.2,16.4
		c8.9,2.7,18.2,4.4,26.7,8.4c-4.6,2.7-8.1-1-12-2.2c-1.6-0.5-2.9-1-5,0C294.4,141.6,303.1,158,309,176.7z"/>
	<path class="st18" d="M190,143c7,3,13,7.3,18,13.1c2.6,5.5,5,11,5.6,17.2c0.4,4-1.1,4.4-4.4,3.6c-11.3-3-22.7-5.9-34.1-8.8
		c-0.1,8.6,7.6,16,15.8,15.7c1.5-0.1,2.9-0.6,4.1-1.5c1.3-0.8,1.8-3.1,3.9-2.3c4.2,1.5,8.5,2.9,12.6,4.7c1.4,0.6-0.2,2.1-0.7,2.9
		c-3.4,4.7-8.4,6.3-13.9,6.3c-9.4,0.1-17.8-3.4-25.7-8.2c-6.6-6-11.3-13-11.9-22.1c-0.7-9.9,1.3-18.6,11.9-22.8
		C177.7,138.7,184.1,137.9,190,143z"/>
	<path class="st22" d="M226.2,154.2c2.7,0.7,5.4,1.6,8.1,2.2c3.9,0.8,6.8,2.2,5.8,7.1c9.6-5,16.7-4.1,23,2.5
		c-0.3,0.4-0.6,0.8-0.9,1.2c-1.3,2.1-2.1,5-3.9,6.1c-1.9,1.1-3.9-1.7-6.1-2.4c-5.6-1.9-9-0.2-10.3,5.7c-1.6,7.7-0.9,15.5-0.8,23.3
		c0,3.8-0.8,5-4.6,3.8c-3.5-1.1-7.1-1.8-10.6-2.7c-0.8-3.8-0.4-7.6-0.3-11.4c0.2-10.8-0.6-21.5,0-32.3c0.1-1.1-0.4-2.4,0.7-3.3
		L226.2,154.2z"/>
	<path class="st21" d="M226.2,154c-1.1,8.5-0.3,17-0.5,25.4c-0.1,7.2,0.1,14.3,0.1,21.5c-1.4-1.5-0.9-3.5-0.9-5.2
		c-0.1-11-0.1-21.9-0.6-32.9C224.3,160.1,223.9,156.6,226.2,154z"/>
	<path class="st23" d="M190,143c-6.2-2-12.5-2.6-18.9-2.1c-0.1-0.6,2.2-1.8,0.1-1.7c-2.6,0.1-5.6,0.1-7.4,3.1
		c-1.7,3-4.1,3.7-6.9,1.1c-1.6-1.6-3.6-1.7-5.5-1c-1.8,0.7-2.8-0.4-3.9-1.4c-1.7-1.6,0.5-2.1,0.7-3.1c0.6-3,4.4-5.4,1.6-9
		c-1.5-3,0.9-5,1.9-7.3c1.3-2.7,0.9-4.1-2.1-5.2c-10.1-3.6-10.3-3.5-14.8,6.4c-4.3,9.5-8.4,19.2-13,28.6c-0.9,1.8-1.2,4.8-3.9,4.5
		c-2.4-0.3-2.9-3-3.6-5c-4.3-11.7-8.6-23.4-12.7-35.2c-0.2-0.6-0.4-1.3-0.6-1.9c-2.1-7.7-5-14.5-14.4-15.6c-1-0.1-1.8-0.8-2.4-1.7
		c-0.9-2.3-2.6-2.4-4.4-1.5c-3,1.5-6.1,2.5-9.5,2.6c-2,0.1-2.7,1.6-3.7,3c-1.5,2.3-3.5,2.3-5.6,0.8c-2.2-1.5-4.1-3.4-4.8-6.1
		c-1.9-6.7-3.8-13.3-4.8-20.2c-0.3-1.8-1.7-2.4-2.5-3.5c-1.1-1.5-1.4-3.1-0.2-4.6c1.1-1.3,2.6-1.2,4.1-0.7c4,1.2,6.8,4.7,11.1,5.3
		c10.1,1.4,19.9,4.2,29.9,6.4c2.5,0.5,4.6,1.9,6.7,3.2c1.8,1.1,3.6,2.5,5.9,2.2c4.7-0.1,9,1.2,13.5,2.6c9.1,2.8,18,6.1,27.4,8
		c4,0.8,7.8,2.5,12,2.8c16.2,4.8,32.4,9.5,48.6,14.3c3.4,4.1,8.2,5.3,13.1,5.8c3.3,0.3,5.6,2.6,8.5,3.5c4.1,1.3,8.1,3.4,12.7,3.2
		c-3.5,3.3-8,2.6-11.9,3.2c-11.1,1.9-21.3,6.1-30.3,12.7C197,141.9,194,143.7,190,143z"/>
	<path class="st24" d="M106,85c-0.7-0.1-1.6,0.2-1.9-0.2c-6.6-6.4-16.4-4.8-23.8-9.3c-1.1-0.7-3-0.7-4.3-0.5
		c-5.4,1-10.3-1.8-15.5-2.4c-2.7-0.3-4.1-3.9-7.2-4.7c-1.4-0.4-2.8-1.7-3.8,0.1c-0.9,1.7-0.1,3.3,1.9,3.7c3,0.6,4.6,1.5,1.4,4.2
		c-0.3,0.3-0.4,1.4-0.1,1.8c3.6,4.7,2.6,10.7,4.7,15.9c0.9,2.2,1.5,4.1,3.5,5.7c2.7,2.2,4.7,4,5.3-1.3c0.2-2.1,1.8-2.2,3.3-2.1
		c3.4,0.2,6.4-0.5,9.4-2.2c3.7-2.1,6.3-0.8,6,2.3c-1.7,1.9-1.2,3.9-0.4,6c2.7,8.1,6.2,16,8.9,24.1c0.7,2,1.7,4,1.6,6.2
		c-0.8,3.6,0.5,6.6,2.9,9.2c0.6,0.7,1.1,1.5,0.3,2.4c-2.7,1.2-5.4,1.9-7.8-0.6c-0.2-0.2-0.6-0.5-0.8-0.5c-7.4,2.3-12.9-4.9-20.3-4
		c-3.3,0.4-5.9-1.8-8-4.9c-2.2-3.2-5.2-6.8-10.2-5.4c-1.4,0.4-1.9-0.3-1.9-1.5c-0.1-1.9-0.2-3.7,1.7-4.9c1.2-0.8,1.3-1.8,0.7-3
		c-0.4-0.7-0.9-1.8-1.8-1.3c-1,0.5-2,1.4-2.3,2.4c-0.5,1.4-0.4,2.9-0.4,4.4c0,14,0,28,0,42c0,1.8,0.5,3.7-0.7,5.3
		c-0.1-22.6-0.1-45.2-0.2-67.8c0-11.1,0-22.3,0-33.4c0-5.4,1.7-6.9,6.6-5.4c17.1,5.3,34.6,9.2,51.3,15.7c0.6,0.2,1.3,0.1,2,0.2
		C106.8,82.4,107.2,83.7,106,85z"/>
	<path class="st17" d="M94,133c-4-11-7.9-22.1-12.1-33.1c-1.2-3.2-1.1-4.7,2.8-3.8c0.2,0.2,0.5,0.6,0.7,0.6
		c11.4,0.3,14.5,8.5,17.4,17.6c4.4,13.4,9.5,26.6,14.3,39.9c0.2,0.4,0.6,0.7,1.3,1.5c5.2-11.6,10.4-22.8,15.5-34.1
		c4.5-9.9,4.5-9.9,14.8-6.9c7.1,2,7.1,2,4,8.5c-1,1.9-1.9,3.9-2.8,5.8c-7.1,14.5-14.3,29-21.2,43.7c-1.5,3.2-3.2,3.5-6.5,3.2
		c-10.1-1-15.9-6-18-16.1c-1.1-5.4-4-10.5-6.1-15.7c0.1-0.9-0.2-1.7-0.9-2.3C95.2,139.1,93.8,136.3,94,133z"/>
	<path class="st25" d="M569,217.9c-16.5-5.7-33.3-10.1-50-15.1c-46-13.6-92-27.2-138-40.8c-0.8-0.2-1.5-0.7-2.2-1
		c0.7-0.3,1.4-0.6,2.1-0.9c0,0,0-0.4,0-0.4c2.6-1.2,4.9,0.5,7.4,0.9c3.3,1.1,6.8,1.8,10.1,3c2,1.6,4.5,1.9,6.6,3.2
		c9.2,3.1,18.5,5.9,28,8.2c21,6.3,41.9,12.6,62.9,18.9c23.5,7,47.1,13.9,70.7,20.9c1.6,0.5,3.2,0.8,4.4,2.2
		C570.5,217.8,569.6,217.4,569,217.9z"/>
	<path class="st26" d="M106,85c0-1.3-1-2.6-0.1-3.9c18,4.8,35.8,10.1,53.5,15.8c-8.4,0-16.3-2.4-24.3-4.7c-3.9-1.2-7.4-3.4-11.7-3.2
		c-0.8,0-1.8-0.1-2.4-0.6C116.7,84.5,111.3,84.9,106,85z"/>
	<path class="st27" d="M335.1,148.8c-0.6,2.6-2,2.2-4.1,1.3c-9.7-3.9-19.6-7.3-30-9.1c-0.5-1.8,1.4-1.2,1.9-1.9
		C313.8,142,324.6,144.9,335.1,148.8z"/>
	<path class="st21" d="M302.9,139.1c-0.6,0.6-1.3,1.3-1.9,1.9c-0.6,0.9-1.3,1.3-2.4,1.3c0.1-1.4,0.3-2.8,0.4-4.2
		C300.5,137.9,301.7,138.6,302.9,139.1z"/>
	<path class="st28" d="M173,278c-0.9-22,0.6-44,0-66c1.3,2.9,2,5.9,2,9c0,17.3,0,34.5,0,51.8C175,274.8,175.3,276.9,173,278z"/>
	<path class="st10" d="M569,217.9c0.6-0.3,1.3-0.6,1.9-0.9c1.4,1.3,2.7,2.6,4.1,3.9c0.2,0.4,0.2,0.8-0.1,1.1c-2.9,0.8-1.8,3.2-1.8,5
		c-0.1,21.6,0,43.2-0.1,64.8c0,1.7,0.8,3.7-1.1,5.1c0-24,0-48,0-71.9C571.9,222.1,571.4,219.7,569,217.9z"/>
	<path class="st5" d="M434.9,219.8c0,1.3-0.3,2.5-1.6,2.7c-1.7,0.2-2.2-1.2-2.3-2.6c-0.1-1.2-0.1-2.6,1.4-2.7
		C434.1,217.1,434.8,218.3,434.9,219.8z"/>
	<path class="st29" d="M399.4,235c-10.5-0.1-18.9-8.4-18.3-18.2c0.3-5.2,2.8-8.2,7.6-8.9c9.8-1.5,20,6.3,20.9,16.1
		C410.3,230.7,406.3,235.1,399.4,235z"/>
	<path class="st30" d="M575.2,222.8c1.1,1.1,0.7,2.5,0.8,3.8c0,22.8,0,45.6,0,68.4c0,1.4,0.8,3-1,4
		C575.1,273.5,575.1,248.2,575.2,222.8z"/>
	<path class="st31" d="M182.9,151.1c6.6-0.1,13.6,5.5,14.8,11.7c0.4,2.1,0.6,3.6-2.6,2.6c-5.4-1.6-10.8-2.9-16.3-4.2
		c-4.4-1.1-5.2-3.6-2.5-7.2C178.1,151.8,180.3,151.1,182.9,151.1z"/>
	<path class="st7" d="M94,133c1.4,2.8,2.7,5.6,3.2,8.7C94.2,140.8,92.8,136.8,94,133z"/>
</g>
</svg>
